<svg width="125" height="68" viewBox="0 0 125 68" fill="none" xmlns="http://www.w3.org/2000/svg">
  <path d="M60.4784 67.8085H7.13726C3.20152 67.8085 -0.000732422 64.6063 -0.000732422 60.6706V7.32944C-0.000732422 3.3937 3.20152 0.191452 7.13726 0.191452H60.4784C64.4141 0.191452 67.6164 3.3937 67.6164 7.32944V60.6706C67.6164 64.6063 64.4141 67.8085 60.4784 67.8085ZM7.13726 2.00428C4.20335 2.00428 1.8121 4.39553 1.8121 7.32944V60.6706C1.8121 63.6045 4.20335 65.9957 7.13726 65.9957H60.4784C63.4123 65.9957 65.8036 63.6045 65.8036 60.6706V7.32944C65.8036 4.39553 63.4123 2.00428 60.4784 2.00428H7.13726Z" fill="url(#paint0_linear_1426_1816)"/>
  <path d="M58.1527 50.8491C58.1527 51.9344 57.2702 52.811 56.1789 52.811C55.0876 52.811 54.2051 51.9344 54.2051 50.8491C54.2051 49.7637 55.0936 48.8991 56.1789 48.8991C57.2642 48.8991 58.1527 49.7697 58.1527 50.8491ZM56.1789 49.2867C55.3023 49.2867 54.5987 49.9784 54.5987 50.8491C54.5987 51.7197 55.3023 52.4174 56.1789 52.4174C57.0555 52.4174 57.7592 51.7078 57.7592 50.8491C57.7592 49.9904 57.0495 49.2867 56.1789 49.2867Z" fill="#00A9CE"/>
  <path d="M56.5963 51.9106L56.1609 51.0758H55.8926V51.9106H55.499V49.7937H56.2921C56.6976 49.7937 56.9779 50.0918 56.9779 50.4437C56.9779 50.7418 56.7871 50.9326 56.5664 51.0102L57.0316 51.9046H56.5963M56.2385 50.1216H55.8926V50.7597H56.2385C56.4472 50.7597 56.5963 50.6166 56.5963 50.4437C56.5963 50.2707 56.4531 50.1216 56.2385 50.1216Z" fill="#00A9CE"/>
  <path d="M17.6564 38.7139C17.6564 42.0175 20.3518 44.6771 23.6792 44.6771C27.0067 44.6771 29.7021 42.0175 29.7021 38.7139C29.7021 35.4102 27.0067 32.7387 23.6792 32.7387C20.3518 32.7387 17.6564 35.4102 17.6564 38.7139ZM58.1527 38.7139C58.1527 46.5019 51.784 52.811 43.9363 52.811C39.9708 52.811 36.3809 51.2009 33.8048 48.6129C31.2287 51.2009 27.6388 52.811 23.6733 52.811C15.8137 52.811 9.46289 46.5019 9.46289 38.7139C9.46289 30.9259 15.8197 24.6168 23.6733 24.6168C25.826 24.6168 27.8714 25.0819 29.6961 25.9406V19.2737C29.6961 17.0316 31.5328 15.2128 33.7869 15.2128C36.041 15.2128 37.8837 17.0256 37.8837 19.2737V38.7139C37.8837 42.0175 40.6089 44.6771 43.9304 44.6771C47.2519 44.6771 49.9532 42.0175 49.9532 38.7139V33.5497C49.9532 31.3135 51.7899 29.4888 54.05 29.4888C56.3101 29.4888 58.1408 31.3135 58.1408 33.5497V38.7139H58.1527Z" fill="url(#paint1_linear_1426_1816)"/>
  <path d="M75.2732 25.7796C75.2732 25.1475 75.4282 24.6943 75.7443 24.42C76.0603 24.1457 76.442 23.9549 76.8952 23.8595C77.2112 23.7998 77.7837 23.7342 78.6126 23.6686C79.4415 23.5971 80.6222 23.5673 82.1607 23.5673C85.3153 23.5673 87.6588 24.1874 89.1973 25.4278C90.7359 26.6681 91.5051 28.3259 91.5051 30.3952C91.5051 31.3612 91.3441 32.2617 91.0161 33.1025C90.6941 33.9433 90.1753 34.6648 89.4657 35.2791C88.7561 35.8873 87.8318 36.3703 86.6868 36.7162C85.5419 37.0621 84.1524 37.235 82.5185 37.235C82.1071 37.235 81.6837 37.2231 81.2603 37.1933C80.8369 37.1634 80.4493 37.1336 80.0915 37.1038C79.7396 37.074 79.4296 37.0382 79.1731 37.0024C78.9167 36.9607 78.7617 36.9428 78.7021 36.9428V44.1583H75.2732V25.7916V25.7796ZM78.7021 33.9433C78.8392 33.9612 79.2268 34.0149 79.853 34.1043C80.4851 34.1937 81.2901 34.2355 82.28 34.2355C83.3653 34.2355 84.2717 34.1341 84.9992 33.9373C85.7267 33.7405 86.3052 33.4662 86.7286 33.1084C87.1519 32.7506 87.4501 32.3451 87.629 31.88C87.8079 31.4149 87.8973 30.9199 87.8973 30.3892C87.8973 29.8943 87.8198 29.4172 87.6588 28.9521C87.4978 28.4869 87.2056 28.0814 86.7703 27.7236C86.335 27.3658 85.7387 27.0856 84.9813 26.8649C84.224 26.6503 83.252 26.537 82.0713 26.537C81.1231 26.537 80.3658 26.5548 79.7933 26.5966C79.2208 26.6383 78.8571 26.6741 78.7021 26.7159V33.9314V33.9433Z" fill="#00205B"/>
  <path d="M107.063 44.0868C106.866 44.1285 106.556 44.1703 106.133 44.218C105.71 44.2657 105.209 44.3193 104.642 44.367C104.07 44.4147 103.432 44.4625 102.722 44.4982C102.012 44.54 101.273 44.5579 100.504 44.5579C98.9651 44.5579 97.7068 44.4267 96.7348 44.1583C95.7628 43.89 94.9876 43.5382 94.4271 43.0909C93.8665 42.6496 93.4789 42.1368 93.2762 41.5524C93.0675 40.974 92.9661 40.3717 92.9661 39.7634C92.9661 38.9524 93.0913 38.2428 93.3358 37.6346C93.5803 37.0263 93.9858 36.5135 94.5463 36.096C95.1069 35.6846 95.8403 35.3685 96.7527 35.1658C97.6591 34.9571 98.7623 34.8557 100.062 34.8557C100.814 34.8557 101.523 34.8795 102.191 34.9272C102.859 34.975 103.366 35.0227 103.7 35.0584C103.7 34.3667 103.587 33.7942 103.36 33.341C103.133 32.8878 102.823 32.536 102.43 32.2736C102.036 32.0172 101.559 31.8383 101.01 31.7429C100.456 31.6415 99.8476 31.5938 99.1798 31.5938C98.0587 31.5938 97.1523 31.725 96.4724 31.9754C95.7926 32.2319 95.3454 32.4465 95.1248 32.6254C95.0055 32.5241 94.8445 32.3392 94.6358 32.0649C94.4271 31.7906 94.3257 31.4566 94.3257 31.0571C94.3257 30.7828 94.3972 30.5085 94.5463 30.2461C94.6954 29.9837 94.9578 29.7452 95.3275 29.5365C95.6972 29.3278 96.2041 29.1668 96.8362 29.0475C97.4683 28.9282 98.2674 28.8686 99.2334 28.8686C100.396 28.8686 101.458 28.9819 102.412 29.2085C103.366 29.4351 104.189 29.7929 104.881 30.2878C105.572 30.7828 106.109 31.4328 106.491 32.2378C106.878 33.0488 107.069 34.0208 107.069 35.1658V44.0689L107.063 44.0868ZM103.724 37.5213C103.527 37.4795 103.157 37.4199 102.615 37.3424C102.072 37.2648 101.261 37.2231 100.176 37.2231C98.8339 37.2231 97.8619 37.4258 97.2477 37.8313C96.6335 38.2368 96.3293 38.8689 96.3293 39.7396C96.3293 40.0974 96.3949 40.4194 96.5202 40.7175C96.6454 41.0157 96.872 41.2662 97.188 41.4689C97.5041 41.6717 97.9335 41.8327 98.4761 41.94C99.0188 42.0474 99.6926 42.101 100.504 42.101C101.41 42.101 102.132 42.0652 102.662 41.9996C103.193 41.9281 103.551 41.8744 103.73 41.8386V37.5213H103.724Z" fill="#00205B"/>
  <path d="M110.551 30.8663C110.551 30.3355 110.707 29.942 111.023 29.6856C111.339 29.4291 111.774 29.3039 112.323 29.3039C112.674 29.3039 113.008 29.3457 113.312 29.4351C113.617 29.5245 113.819 29.5901 113.921 29.6259V37.5212C113.921 38.6841 114.231 39.6084 114.851 40.3001C115.471 40.9918 116.431 41.3377 117.737 41.3377C118.942 41.3377 119.884 40.9859 120.576 40.2882C121.267 39.5905 121.613 38.5589 121.613 37.1992V30.8722C121.613 30.3415 121.768 29.9479 122.084 29.6915C122.4 29.4351 122.836 29.3099 123.384 29.3099C123.736 29.3099 124.07 29.3516 124.374 29.4411C124.678 29.5305 124.881 29.5961 124.983 29.6319V42.584C124.983 43.9854 124.798 45.1721 124.422 46.15C124.046 47.128 123.516 47.9271 122.824 48.5592C122.132 49.1913 121.303 49.6505 120.337 49.9367C119.371 50.2229 118.298 50.366 117.111 50.366C116.3 50.366 115.561 50.3243 114.893 50.2349C114.225 50.1454 113.629 50.044 113.104 49.9248C112.579 49.8055 112.156 49.6922 111.816 49.5849C111.482 49.4775 111.243 49.394 111.106 49.3344C111.261 48.9229 111.41 48.4996 111.547 48.0762C111.684 47.6528 111.822 47.2353 111.959 46.8179C112.096 46.8776 112.317 46.9551 112.609 47.0565C112.907 47.1578 113.259 47.2473 113.676 47.3367C114.088 47.4262 114.559 47.4977 115.084 47.5574C115.608 47.617 116.163 47.6468 116.753 47.6468C117.523 47.6468 118.214 47.5633 118.822 47.3964C119.431 47.2294 119.95 46.9372 120.373 46.5257C120.796 46.1143 121.124 45.5656 121.351 44.8858C121.577 44.206 121.691 43.3533 121.691 42.3276C121.297 42.9001 120.683 43.3592 119.842 43.7051C119.001 44.051 118.083 44.2239 117.075 44.2239C116.127 44.2239 115.251 44.0927 114.445 43.8244C113.634 43.556 112.949 43.1744 112.376 42.6735C111.804 42.1726 111.357 41.5464 111.029 40.7951C110.701 40.0437 110.54 39.1909 110.54 38.2249V30.8901L110.551 30.8663Z" fill="#00205B"/>
  <defs>
    <linearGradient id="paint0_linear_1426_1816" x1="2.09236" y1="65.7214" x2="65.5233" y2="2.2905" gradientUnits="userSpaceOnUse">
      <stop stop-color="#00205B"/>
      <stop offset="0.35" stop-color="#753BBD"/>
      <stop offset="0.7" stop-color="#00A9CE"/>
    </linearGradient>
    <linearGradient id="paint1_linear_1426_1816" x1="18.7298" y1="53.7889" x2="49.3927" y2="23.126" gradientUnits="userSpaceOnUse">
      <stop stop-color="#00205B"/>
      <stop offset="0.35" stop-color="#753BBD"/>
      <stop offset="0.7" stop-color="#00A9CE"/>
    </linearGradient>
  </defs>
</svg>